<svg width="179" height="55" viewBox="0 0 179 55" fill="none" xmlns="http://www.w3.org/2000/svg">
<path d="M91.0708 20.4258C91.0708 19.4422 91.241 18.5217 91.5815 17.6642C91.9219 16.8067 92.3839 16.0564 92.9675 15.4133C93.5632 14.7702 94.2562 14.2658 95.0464 13.9001C95.8489 13.5218 96.6999 13.3326 97.5996 13.3326C98.4628 13.3326 99.2835 13.5029 100.062 13.8433C100.84 14.1838 101.539 14.6819 102.159 15.3376L102.378 15.6024L99.3503 19.2152L97.8914 17.8344L99.5145 15.8105C99.1984 15.6718 98.8823 15.5646 98.5662 15.4889C98.2501 15.4007 97.9157 15.3565 97.5631 15.3565C96.9066 15.3565 96.2987 15.4952 95.7394 15.7727C95.1802 16.0501 94.6999 16.4221 94.2987 16.8887C93.8975 17.3552 93.5814 17.8975 93.3504 18.5154C93.1316 19.1206 93.0222 19.7574 93.0222 20.4258C93.0222 21.0941 93.1316 21.7372 93.3504 22.3551C93.5814 22.9604 93.8975 23.4963 94.2987 23.9629C94.6999 24.4169 95.1802 24.7826 95.7394 25.06C96.2987 25.3374 96.9066 25.4761 97.5631 25.4761C98.2075 25.4761 98.8093 25.3437 99.3686 25.0789C99.94 24.8141 100.451 24.4421 100.9 23.9629L101.156 23.6792L102.469 25.1356L102.25 25.3815C101.63 26.0751 100.919 26.6047 100.116 26.9704C99.326 27.3235 98.4871 27.5 97.5996 27.5C96.6999 27.5 95.8489 27.3172 95.0464 26.9515C94.2562 26.5732 93.5632 26.0688 92.9675 25.4383C92.3839 24.7952 91.9219 24.0449 91.5815 23.1874C91.241 22.3299 91.0708 21.4094 91.0708 20.4258Z" fill="#295852"/>
<path d="M111.28 13.2759C112.131 13.2759 112.927 13.465 113.669 13.8433C114.422 14.209 115.079 14.7134 115.638 15.3565C116.198 15.9997 116.635 16.7499 116.951 17.6074C117.28 18.4649 117.444 19.3854 117.444 20.369C117.444 21.3526 117.28 22.2732 116.951 23.1306C116.635 23.9881 116.198 24.7384 115.638 25.3815C115.079 26.012 114.422 26.5164 113.669 26.8947C112.927 27.2604 112.131 27.4433 111.28 27.4433C110.429 27.4433 109.626 27.2604 108.872 26.8947C108.119 26.5164 107.456 26.012 106.885 25.3815C106.325 24.7384 105.882 23.9881 105.553 23.1306C105.237 22.2732 105.079 21.3526 105.079 20.369C105.079 19.3854 105.237 18.4649 105.553 17.6074C105.882 16.7499 106.325 15.9997 106.885 15.3565C107.456 14.7134 108.119 14.209 108.872 13.8433C109.626 13.465 110.429 13.2759 111.28 13.2759ZM106.976 20.369C106.976 20.9995 107.073 21.6174 107.268 22.2227C107.474 22.828 107.76 23.3702 108.125 23.8494C108.502 24.316 108.951 24.6943 109.474 24.9843C110.009 25.2743 110.605 25.4194 111.261 25.4194C111.918 25.4194 112.508 25.2743 113.03 24.9843C113.553 24.6943 114.003 24.316 114.38 23.8494C114.757 23.3702 115.043 22.828 115.237 22.2227C115.444 21.6174 115.547 20.9995 115.547 20.369C115.547 19.7259 115.444 19.1017 115.237 18.4964C115.043 17.8785 114.757 17.3363 114.38 16.8697C114.003 16.3906 113.547 16.0123 113.012 15.7348C112.489 15.4448 111.906 15.2998 111.261 15.2998C110.617 15.2998 110.027 15.4448 109.492 15.7348C108.97 16.0123 108.52 16.3906 108.143 16.8697C107.778 17.3363 107.492 17.8785 107.286 18.4964C107.079 19.1017 106.976 19.7259 106.976 20.369Z" fill="#295852"/>
<path d="M142.235 25.287L146.083 15.3376H145.079V13.5029H147.359L151.9 25.287H152.921V27.1217H150.642L149.693 24.5682H144.441L143.475 27.1217H141.213V25.287H142.235ZM149 22.7334L147.067 17.5885L145.134 22.7334H149Z" fill="#295852"/>
<path d="M155.666 15.3376V13.5029H162.322C162.796 13.5029 163.234 13.5974 163.635 13.7866C164.048 13.9631 164.407 14.2153 164.711 14.5432C165.027 14.8584 165.27 15.2304 165.44 15.6592C165.623 16.0879 165.714 16.5419 165.714 17.0211C165.714 17.9416 165.422 18.736 164.839 19.4044C165.41 19.7827 165.86 20.2871 166.188 20.9176C166.516 21.5481 166.681 22.2227 166.681 22.9415C166.681 23.5215 166.577 24.0638 166.371 24.5682C166.164 25.0726 165.884 25.5139 165.532 25.8922C165.179 26.2705 164.76 26.5732 164.273 26.8002C163.799 27.0145 163.295 27.1217 162.76 27.1217H155.666V25.287H156.723V15.3376H155.666ZM158.492 25.3059H162.76C163.064 25.3059 163.343 25.2428 163.599 25.1167C163.866 24.9906 164.097 24.8204 164.292 24.606C164.498 24.3916 164.656 24.1457 164.766 23.8683C164.887 23.5783 164.948 23.2693 164.948 22.9415C164.948 22.6136 164.887 22.3047 164.766 22.0146C164.656 21.7246 164.498 21.4724 164.292 21.258C164.097 21.0437 163.866 20.8734 163.599 20.7473C163.343 20.6212 163.064 20.5582 162.76 20.5582H158.492V25.3059ZM158.492 15.2998V18.7613H162.322C162.553 18.7613 162.766 18.7171 162.96 18.6288C163.167 18.5406 163.343 18.4208 163.489 18.2695C163.647 18.1055 163.769 17.9164 163.854 17.702C163.939 17.4876 163.982 17.2607 163.982 17.0211C163.982 16.5419 163.817 16.1384 163.489 15.8105C163.173 15.47 162.784 15.2998 162.322 15.2998H158.492Z" fill="#295852"/>
<path d="M79.6553 25.2491V15.3755V13.5029H88.2083V17.5507H86.5488V15.3376H81.4425V19.3854H84.3604V21.2391H81.4425V25.287H86.5488V23.0739H88.2083V27.1217H79.6553V25.2491Z" fill="#295852"/>
<path d="M127.787 25.4194V13.5029H129.391L135.592 23.3576V15.2052V13.5029H138.4V15.2052H137.361V27.1217H135.756L129.574 17.2291V25.4194V27.1217H126.747V25.4194H127.787Z" fill="#295852"/>
<path d="M169.723 25.2491V15.3755V13.5029H178.276V17.5507H176.616V15.3376H171.51V19.3854H174.428V21.2391H171.51V25.287H176.616V23.0739H178.276V27.1217H169.723V25.2491Z" fill="#295852"/>
<path d="M104.369 40.7761C103.743 40.7761 103.266 40.5864 102.939 40.2071C102.617 39.8278 102.444 39.3036 102.421 38.6346C102.416 38.4923 102.414 38.2605 102.414 37.9392C102.414 37.6125 102.416 37.3755 102.421 37.2279C102.444 36.5642 102.619 36.0426 102.946 35.6633C103.273 35.2787 103.748 35.0864 104.369 35.0864C104.785 35.0864 105.138 35.1707 105.427 35.3393C105.717 35.5026 105.936 35.7186 106.086 35.9873C106.236 36.256 106.317 36.5431 106.331 36.8486V36.8644C106.331 36.9066 106.315 36.9435 106.282 36.9751C106.254 37.0014 106.221 37.0146 106.184 37.0146H105.799C105.705 37.0146 105.647 36.954 105.623 36.8328C105.544 36.4377 105.402 36.1611 105.196 36.0031C104.99 35.8398 104.715 35.7581 104.369 35.7581C103.565 35.7581 103.15 36.2612 103.122 37.2675C103.117 37.4097 103.115 37.6283 103.115 37.9234C103.115 38.2184 103.117 38.4423 103.122 38.595C103.15 39.6013 103.565 40.1044 104.369 40.1044C104.715 40.1044 104.99 40.0254 105.196 39.8673C105.406 39.704 105.549 39.4248 105.623 39.0297C105.637 38.9612 105.659 38.9138 105.687 38.8874C105.715 38.8611 105.752 38.8479 105.799 38.8479H106.184C106.226 38.8479 106.261 38.8637 106.289 38.8953C106.322 38.9217 106.336 38.9586 106.331 39.006C106.317 39.3168 106.236 39.6065 106.086 39.8752C105.936 40.1439 105.717 40.3625 105.427 40.5311C105.138 40.6944 104.785 40.7761 104.369 40.7761Z" fill="#8CBF80"/>
<path d="M109.737 40.7761C109.125 40.7761 108.651 40.597 108.315 40.2387C107.983 39.8752 107.808 39.33 107.789 38.6029C107.784 38.4449 107.782 38.221 107.782 37.9313C107.782 37.6415 107.784 37.4202 107.789 37.2675C107.808 36.5563 107.99 36.0163 108.336 35.6475C108.681 35.2734 109.149 35.0864 109.737 35.0864C110.321 35.0864 110.786 35.2734 111.132 35.6475C111.478 36.0163 111.66 36.5563 111.678 37.2675C111.688 37.573 111.692 37.7943 111.692 37.9313C111.692 38.063 111.688 38.2869 111.678 38.6029C111.66 39.33 111.482 39.8752 111.146 40.2387C110.814 40.597 110.345 40.7761 109.737 40.7761ZM109.737 40.1044C110.106 40.1044 110.401 39.9779 110.62 39.7251C110.84 39.4722 110.959 39.085 110.978 38.5634C110.987 38.2473 110.992 38.0366 110.992 37.9313C110.992 37.8154 110.987 37.6046 110.978 37.2991C110.959 36.7775 110.838 36.3903 110.613 36.1374C110.394 35.8846 110.102 35.7581 109.737 35.7581C109.368 35.7581 109.072 35.8846 108.847 36.1374C108.628 36.3903 108.509 36.7775 108.49 37.2991C108.485 37.4518 108.483 37.6626 108.483 37.9313C108.483 38.1947 108.485 38.4054 108.49 38.5634C108.509 39.085 108.628 39.4722 108.847 39.7251C109.072 39.9779 109.368 40.1044 109.737 40.1044Z" fill="#8CBF80"/>
<path d="M113.576 40.6971C113.529 40.6971 113.49 40.6813 113.457 40.6496C113.429 40.6128 113.415 40.568 113.415 40.5153V35.3551C113.415 35.2972 113.429 35.2524 113.457 35.2208C113.49 35.1839 113.529 35.1654 113.576 35.1654H113.926C114.001 35.1654 114.062 35.2076 114.109 35.2919L115.587 38.4844L117.08 35.2919C117.089 35.2603 117.108 35.2313 117.136 35.205C117.169 35.1786 117.208 35.1654 117.255 35.1654H117.599C117.65 35.1654 117.69 35.1839 117.718 35.2208C117.75 35.2524 117.767 35.2972 117.767 35.3551V40.5153C117.767 40.568 117.75 40.6128 117.718 40.6496C117.685 40.6813 117.645 40.6971 117.599 40.6971H117.255C117.208 40.6971 117.169 40.6813 117.136 40.6496C117.108 40.6128 117.094 40.568 117.094 40.5153V36.6274L115.924 39.2035C115.877 39.3142 115.802 39.3695 115.699 39.3695H115.482C115.379 39.3695 115.305 39.3142 115.258 39.2035L114.081 36.6274V40.5153C114.081 40.568 114.064 40.6128 114.031 40.6496C114.003 40.6813 113.966 40.6971 113.919 40.6971H113.576Z" fill="#8CBF80"/>
<path d="M119.841 40.6971C119.794 40.6971 119.754 40.6813 119.722 40.6496C119.694 40.6128 119.68 40.568 119.68 40.5153V35.3551C119.68 35.2972 119.694 35.2524 119.722 35.2208C119.754 35.1839 119.794 35.1654 119.841 35.1654H120.191C120.266 35.1654 120.327 35.2076 120.373 35.2919L121.852 38.4844L123.345 35.2919C123.354 35.2603 123.373 35.2313 123.401 35.205C123.433 35.1786 123.473 35.1654 123.52 35.1654H123.863C123.915 35.1654 123.954 35.1839 123.982 35.2208C124.015 35.2524 124.031 35.2972 124.031 35.3551V40.5153C124.031 40.568 124.015 40.6128 123.982 40.6496C123.95 40.6813 123.91 40.6971 123.863 40.6971H123.52C123.473 40.6971 123.433 40.6813 123.401 40.6496C123.373 40.6128 123.359 40.568 123.359 40.5153V36.6274L122.188 39.2035C122.142 39.3142 122.067 39.3695 121.964 39.3695H121.747C121.644 39.3695 121.569 39.3142 121.523 39.2035L120.345 36.6274V40.5153C120.345 40.568 120.329 40.6128 120.296 40.6496C120.268 40.6813 120.231 40.6971 120.184 40.6971H119.841Z" fill="#8CBF80"/>
<path d="M127.794 40.7761C127.192 40.7761 126.724 40.5943 126.393 40.2308C126.066 39.862 125.902 39.3063 125.902 38.5634V35.3551C125.902 35.2972 125.916 35.2524 125.944 35.2208C125.977 35.1839 126.017 35.1654 126.063 35.1654H126.421C126.472 35.1654 126.512 35.1839 126.54 35.2208C126.573 35.2524 126.589 35.2972 126.589 35.3551V38.5792C126.589 39.085 126.694 39.4643 126.904 39.7172C127.115 39.97 127.411 40.0965 127.794 40.0965C128.177 40.0965 128.474 39.97 128.684 39.7172C128.895 39.4643 129 39.085 129 38.5792V35.3551C129 35.2972 129.014 35.2524 129.042 35.2208C129.074 35.1839 129.114 35.1654 129.161 35.1654H129.525C129.572 35.1654 129.609 35.1839 129.637 35.2208C129.67 35.2576 129.687 35.3024 129.687 35.3551V38.5634C129.687 39.3063 129.521 39.862 129.189 40.2308C128.862 40.5943 128.397 40.7761 127.794 40.7761Z" fill="#8CBF80"/>
<path d="M131.72 40.6971C131.673 40.6971 131.634 40.6813 131.601 40.6496C131.573 40.6128 131.559 40.568 131.559 40.5153V35.3551C131.559 35.2972 131.573 35.2524 131.601 35.2208C131.634 35.1839 131.673 35.1654 131.72 35.1654H132.042C132.126 35.1654 132.185 35.2023 132.218 35.2761L134.544 39.3063V35.3551C134.544 35.2972 134.558 35.2524 134.586 35.2208C134.619 35.1839 134.659 35.1654 134.705 35.1654H135.042C135.093 35.1654 135.133 35.1839 135.161 35.2208C135.194 35.2524 135.21 35.2972 135.21 35.3551V40.5074C135.21 40.5601 135.194 40.6049 135.161 40.6417C135.133 40.6786 135.096 40.6971 135.049 40.6971H134.712C134.642 40.6971 134.586 40.6602 134.544 40.5864L132.225 36.5958V40.5153C132.225 40.568 132.208 40.6128 132.176 40.6496C132.143 40.6813 132.103 40.6971 132.056 40.6971H131.72Z" fill="#8CBF80"/>
<path d="M137.294 40.6971C137.247 40.6971 137.207 40.6813 137.174 40.6496C137.146 40.6128 137.132 40.568 137.132 40.5153V35.3472C137.132 35.2945 137.146 35.2524 137.174 35.2208C137.207 35.1839 137.247 35.1654 137.294 35.1654H137.665C137.712 35.1654 137.749 35.1839 137.777 35.2208C137.81 35.2524 137.826 35.2945 137.826 35.3472V40.5153C137.826 40.568 137.81 40.6128 137.777 40.6496C137.749 40.6813 137.712 40.6971 137.665 40.6971H137.294Z" fill="#8CBF80"/>
<path d="M140.983 40.6971C140.936 40.6971 140.896 40.6813 140.864 40.6496C140.836 40.6128 140.822 40.568 140.822 40.5153V35.8688H139.476C139.429 35.8688 139.39 35.8529 139.357 35.8213C139.329 35.7845 139.315 35.7397 139.315 35.687V35.3551C139.315 35.3024 139.329 35.2576 139.357 35.2208C139.39 35.1839 139.429 35.1654 139.476 35.1654H142.854C142.905 35.1654 142.945 35.1839 142.973 35.2208C143.006 35.2524 143.022 35.2972 143.022 35.3551V35.687C143.022 35.7397 143.006 35.7845 142.973 35.8213C142.94 35.8529 142.901 35.8688 142.854 35.8688H141.515V40.5153C141.515 40.568 141.499 40.6128 141.466 40.6496C141.434 40.6813 141.394 40.6971 141.347 40.6971H140.983Z" fill="#8CBF80"/>
<path d="M144.67 40.6971C144.623 40.6971 144.583 40.6813 144.551 40.6496C144.523 40.6128 144.509 40.568 144.509 40.5153V35.3472C144.509 35.2945 144.523 35.2524 144.551 35.2208C144.583 35.1839 144.623 35.1654 144.67 35.1654H145.041C145.088 35.1654 145.125 35.1839 145.153 35.2208C145.186 35.2524 145.202 35.2945 145.202 35.3472V40.5153C145.202 40.568 145.186 40.6128 145.153 40.6496C145.125 40.6813 145.088 40.6971 145.041 40.6971H144.67Z" fill="#8CBF80"/>
<path d="M147.287 40.6971C147.24 40.6971 147.2 40.6813 147.168 40.6496C147.14 40.6128 147.126 40.568 147.126 40.5153V35.3551C147.126 35.2972 147.14 35.2524 147.168 35.2208C147.2 35.1839 147.24 35.1654 147.287 35.1654H150.181C150.228 35.1654 150.265 35.1839 150.293 35.2208C150.326 35.2524 150.342 35.2972 150.342 35.3551V35.6554C150.342 35.7081 150.328 35.7529 150.3 35.7897C150.272 35.8213 150.232 35.8371 150.181 35.8371H147.798V37.5677H150.027C150.074 37.5677 150.111 37.5862 150.139 37.6231C150.172 37.6547 150.188 37.6995 150.188 37.7574V38.0498C150.188 38.1025 150.172 38.1472 150.139 38.1841C150.111 38.2157 150.074 38.2315 150.027 38.2315H147.798V40.0254H150.237C150.289 40.0254 150.328 40.0412 150.356 40.0728C150.384 40.1044 150.398 40.1492 150.398 40.2071V40.5153C150.398 40.568 150.382 40.6128 150.349 40.6496C150.321 40.6813 150.284 40.6971 150.237 40.6971H147.287Z" fill="#8CBF80"/>
<path d="M153.653 40.7761C153.265 40.7761 152.929 40.7076 152.644 40.5706C152.364 40.4336 152.149 40.2545 151.999 40.0333C151.85 39.8067 151.77 39.5644 151.761 39.3063C151.761 39.2641 151.775 39.2272 151.803 39.1956C151.836 39.1587 151.873 39.1403 151.915 39.1403H152.273C152.361 39.1403 152.422 39.193 152.455 39.2984C152.497 39.5196 152.616 39.7093 152.812 39.8673C153.013 40.0254 153.293 40.1044 153.653 40.1044C154.041 40.1044 154.333 40.028 154.529 39.8752C154.725 39.7172 154.823 39.4985 154.823 39.2193C154.823 39.0402 154.774 38.8953 154.676 38.7847C154.583 38.6741 154.443 38.5766 154.256 38.4923C154.069 38.408 153.789 38.3027 153.415 38.1762C153.05 38.0603 152.761 37.9365 152.546 37.8048C152.331 37.6731 152.17 37.5098 152.062 37.3149C151.955 37.12 151.901 36.875 151.901 36.58C151.901 36.2955 151.969 36.04 152.104 35.8134C152.245 35.5869 152.443 35.4104 152.7 35.284C152.957 35.1523 153.263 35.0864 153.618 35.0864C153.983 35.0864 154.296 35.1602 154.557 35.3077C154.819 35.4499 155.017 35.6317 155.153 35.8529C155.288 36.0742 155.361 36.2955 155.37 36.5167C155.37 36.5589 155.356 36.5958 155.328 36.6274C155.305 36.659 155.27 36.6748 155.223 36.6748H154.852C154.753 36.6748 154.693 36.6247 154.669 36.5246C154.641 36.3034 154.531 36.1216 154.34 35.9794C154.148 35.8319 153.908 35.7581 153.618 35.7581C153.3 35.7581 153.05 35.8266 152.868 35.9636C152.686 36.1006 152.595 36.3034 152.595 36.5721C152.595 36.7512 152.637 36.8987 152.721 37.0146C152.81 37.1305 152.943 37.2332 153.121 37.3228C153.298 37.4071 153.557 37.5045 153.898 37.6152C154.296 37.7363 154.609 37.8628 154.837 37.9945C155.066 38.1209 155.237 38.2816 155.349 38.4765C155.461 38.6662 155.517 38.9085 155.517 39.2035C155.517 39.6935 155.349 40.078 155.013 40.3573C154.676 40.6365 154.223 40.7761 153.653 40.7761Z" fill="#8CBF80"/>
<path fill-rule="evenodd" clip-rule="evenodd" d="M33.4421 0.0707685C33.8028 -0.0235895 34.182 -0.0235895 34.5428 0.0707685C34.9841 0.186191 35.3454 0.467058 35.4585 0.55505C35.4693 0.56342 35.4778 0.570045 35.484 0.574616L56.9972 16.6118C57.0017 16.6151 57.0079 16.6196 57.0157 16.6252C57.0978 16.6846 57.3546 16.8705 57.5508 17.1273C57.7124 17.339 57.833 17.5786 57.9065 17.834C57.9956 18.144 57.9911 18.4593 57.9896 18.5603C57.9895 18.5698 57.9894 18.5774 57.9894 18.583V26.856L65.8339 26.8559C65.9565 26.8558 66.1362 26.8557 66.3 26.87C66.5026 26.8876 66.8099 26.9349 67.136 27.107C67.5501 27.3256 67.8891 27.6824 68.0847 28.1055C68.2343 28.4291 68.2675 28.7274 68.2744 28.9354C68.2798 29.0981 68.2692 29.2736 68.2624 29.3879C68.2618 29.3976 68.2612 29.4067 68.2607 29.4154C67.883 35.8118 63.7328 41.1963 57.9894 43.4159L57.9894 52.5631C57.9895 52.6861 57.9896 52.8602 57.9767 53.0177C57.9611 53.2065 57.9192 53.5078 57.754 53.8295C57.5469 54.2329 57.2165 54.5608 56.8102 54.7663C56.486 54.9303 56.1824 54.9719 55.9922 54.9873C55.8335 55.0002 55.6582 55.0001 55.5342 55H37.8532C37.7293 55.0001 37.5539 55.0002 37.3952 54.9873C37.205 54.9719 36.9015 54.9303 36.5773 54.7663C36.1709 54.5608 35.8405 54.2329 35.6335 53.8295C35.4683 53.5078 35.4263 53.2065 35.4108 53.0177C35.3978 52.8602 35.398 52.6861 35.3981 52.5631L35.3981 42.896C35.3981 34.0373 42.6333 26.856 51.5583 26.856H54.7498V18.9578L33.9924 3.48414L13.2351 18.9578V26.856H16.7176C25.6426 26.856 32.8778 34.0373 32.8778 42.896L32.8778 52.5631C32.8779 52.6861 32.878 52.8602 32.8651 53.0177C32.8495 53.2065 32.8076 53.5078 32.6424 53.8295C32.4353 54.2329 32.1049 54.5608 31.6986 54.7663C31.3744 54.9303 31.0708 54.9719 30.8806 54.9873C30.7219 55.0002 30.5466 55.0001 30.4226 55H12.4506C12.3267 55.0001 12.1513 55.0002 11.9926 54.9873C11.8024 54.9719 11.4989 54.9303 11.1747 54.7663C10.7683 54.5608 10.4379 54.2329 10.2309 53.8295C10.0657 53.5078 10.0237 53.2065 10.0082 53.0177C9.99523 52.8602 9.99536 52.6861 9.99545 52.5631L9.99546 43.3001C4.40361 41.0134 0.386411 35.7035 0.0151315 29.4154C0.0146197 29.4068 0.0140709 29.3976 0.0134963 29.3881C0.00662623 29.2737 -0.00391754 29.0982 0.00148917 28.9354C0.00839628 28.7274 0.0415226 28.4291 0.191132 28.1055C0.386782 27.6824 0.725746 27.3256 1.13988 27.107C1.46595 26.9349 1.77329 26.8876 1.97582 26.87C2.13969 26.8557 2.31936 26.8558 2.44201 26.8559C2.452 26.856 2.46161 26.856 2.4708 26.856H9.99546V18.583C9.99546 18.5774 9.99535 18.5698 9.99522 18.5603C9.99377 18.4593 9.98927 18.144 10.0784 17.834C10.1518 17.5786 10.2724 17.339 10.4341 17.1273C10.6303 16.8705 10.887 16.6846 10.9692 16.6252C10.977 16.6196 10.9832 16.6151 10.9876 16.6118L32.5009 0.574617C32.507 0.570047 32.5155 0.563425 32.5263 0.555059C32.6395 0.467077 33.0008 0.186194 33.4421 0.0707685ZM13.2351 44.2437V51.7845H29.6382V44.5038H16.1473C15.154 44.5038 14.1805 44.4146 13.2351 44.2437ZM29.5376 41.2883C28.7408 34.9643 23.3048 30.0715 16.7176 30.0715H3.32715C3.95327 35.0425 7.4488 39.134 12.1197 40.6534C13.3851 41.065 14.7383 41.2883 16.1473 41.2883H29.5376ZM54.7498 44.2936C53.8959 44.4319 53.0202 44.5038 52.1285 44.5038H38.6377V51.7845H54.7498V44.2936ZM38.7382 41.2883H52.1285C53.4422 41.2883 54.7073 41.0942 55.8978 40.7344C60.6974 39.284 64.3111 35.134 64.9487 30.0715H51.5583C44.971 30.0715 39.5351 34.9643 38.7382 41.2883Z" fill="#8CBF80"/>
</svg>
