<svg width="69" height="55" viewBox="0 0 69 55" fill="none" xmlns="http://www.w3.org/2000/svg">
<path fill-rule="evenodd" clip-rule="evenodd" d="M33.4421 0.0707685C33.8028 -0.0235895 34.182 -0.0235895 34.5428 0.0707685C34.9841 0.186191 35.3454 0.467058 35.4585 0.55505C35.4693 0.56342 35.4778 0.570045 35.484 0.574616L56.9972 16.6118C57.0017 16.6151 57.0079 16.6196 57.0157 16.6252C57.0978 16.6846 57.3546 16.8705 57.5508 17.1273C57.7124 17.339 57.833 17.5786 57.9065 17.834C57.9956 18.144 57.9911 18.4593 57.9896 18.5603C57.9895 18.5698 57.9894 18.5774 57.9894 18.583V26.856L65.8339 26.8559C65.9565 26.8558 66.1362 26.8557 66.3 26.87C66.5026 26.8876 66.8099 26.9349 67.136 27.107C67.5501 27.3256 67.8891 27.6824 68.0847 28.1055C68.2343 28.4291 68.2675 28.7274 68.2744 28.9354C68.2798 29.0981 68.2692 29.2736 68.2624 29.3879C68.2618 29.3976 68.2612 29.4067 68.2607 29.4154C67.883 35.8118 63.7328 41.1963 57.9894 43.4159L57.9894 52.5631C57.9895 52.6861 57.9896 52.8602 57.9767 53.0177C57.9611 53.2065 57.9192 53.5078 57.754 53.8295C57.5469 54.2329 57.2165 54.5608 56.8102 54.7663C56.486 54.9303 56.1824 54.9719 55.9922 54.9873C55.8335 55.0002 55.6582 55.0001 55.5342 55H37.8532C37.7293 55.0001 37.5539 55.0002 37.3952 54.9873C37.205 54.9719 36.9015 54.9303 36.5773 54.7663C36.1709 54.5608 35.8405 54.2329 35.6335 53.8295C35.4683 53.5078 35.4263 53.2065 35.4108 53.0177C35.3978 52.8602 35.398 52.6861 35.3981 52.5631L35.3981 42.896C35.3981 34.0373 42.6333 26.856 51.5583 26.856H54.7498V18.9578L33.9924 3.48414L13.2351 18.9578V26.856H16.7176C25.6426 26.856 32.8778 34.0373 32.8778 42.896L32.8778 52.5631C32.8779 52.6861 32.878 52.8602 32.8651 53.0177C32.8495 53.2065 32.8076 53.5078 32.6424 53.8295C32.4353 54.2329 32.1049 54.5608 31.6986 54.7663C31.3744 54.9303 31.0708 54.9719 30.8806 54.9873C30.7219 55.0002 30.5466 55.0001 30.4226 55H12.4506C12.3267 55.0001 12.1513 55.0002 11.9926 54.9873C11.8024 54.9719 11.4989 54.9303 11.1747 54.7663C10.7683 54.5608 10.4379 54.2329 10.2309 53.8295C10.0657 53.5078 10.0237 53.2065 10.0082 53.0177C9.99523 52.8602 9.99536 52.6861 9.99545 52.5631L9.99546 43.3001C4.40361 41.0134 0.386411 35.7035 0.0151315 29.4154C0.0146197 29.4068 0.0140709 29.3976 0.0134963 29.3881C0.00662623 29.2737 -0.00391754 29.0982 0.00148917 28.9354C0.00839628 28.7274 0.0415226 28.4291 0.191132 28.1055C0.386782 27.6824 0.725746 27.3256 1.13988 27.107C1.46595 26.9349 1.77329 26.8876 1.97582 26.87C2.13969 26.8557 2.31936 26.8558 2.44201 26.8559C2.452 26.856 2.46161 26.856 2.4708 26.856H9.99546V18.583C9.99546 18.5774 9.99535 18.5698 9.99522 18.5603C9.99377 18.4593 9.98927 18.144 10.0784 17.834C10.1518 17.5786 10.2724 17.339 10.4341 17.1273C10.6303 16.8705 10.887 16.6846 10.9692 16.6252C10.977 16.6196 10.9832 16.6151 10.9876 16.6118L32.5009 0.574617C32.507 0.570047 32.5155 0.563425 32.5263 0.555059C32.6395 0.467077 33.0008 0.186194 33.4421 0.0707685ZM13.2351 44.2437V51.7845H29.6382V44.5038H16.1473C15.154 44.5038 14.1805 44.4146 13.2351 44.2437ZM29.5376 41.2883C28.7408 34.9643 23.3048 30.0715 16.7176 30.0715H3.32715C3.95327 35.0425 7.4488 39.134 12.1197 40.6534C13.3851 41.065 14.7383 41.2883 16.1473 41.2883H29.5376ZM54.7498 44.2936C53.8959 44.4319 53.0202 44.5038 52.1285 44.5038H38.6377V51.7845H54.7498V44.2936ZM38.7382 41.2883H52.1285C53.4422 41.2883 54.7073 41.0942 55.8978 40.7344C60.6974 39.284 64.3111 35.134 64.9487 30.0715H51.5583C44.971 30.0715 39.5351 34.9643 38.7382 41.2883Z" fill="#8CBF80"/>
</svg>
